<svg width="223" height="55" viewBox="0 0 223 55" fill="none" xmlns="http://www.w3.org/2000/svg">
<path d="M21.8994 54.08C24.5394 54.08 27.0954 53.744 29.5674 53.072C32.0634 52.4 34.2954 51.392 36.2634 50.048C38.2314 48.68 39.7914 46.964 40.9434 44.9C42.1194 42.812 42.7074 40.376 42.7074 37.592C42.7074 34.976 42.2154 32.816 41.2314 31.112C40.2714 29.408 39.0354 28.04 37.5234 27.008C36.0354 25.952 34.4754 25.136 32.8434 24.56C31.2114 23.96 29.7234 23.48 28.3794 23.12L19.3794 20.672C18.2754 20.384 17.1954 20.024 16.1394 19.592C15.0834 19.16 14.2074 18.596 13.5114 17.9C12.8154 17.18 12.4674 16.256 12.4674 15.128C12.4674 13.904 12.8874 12.848 13.7274 11.96C14.5914 11.072 15.6954 10.4 17.0394 9.94399C18.4074 9.46399 19.8594 9.248 21.3954 9.29599C23.7474 9.368 25.9074 10.064 27.8754 11.384C29.8434 12.704 31.1154 14.624 31.6914 17.144L42.2754 15.344C41.0274 10.472 38.6034 6.73999 35.0034 4.14799C31.4034 1.55599 26.9154 0.223996 21.5394 0.151995C17.9874 0.127994 14.7474 0.679994 11.8194 1.808C8.8914 2.93599 6.5514 4.65199 4.7994 6.95599C3.0474 9.25999 2.1714 12.152 2.1714 15.632C2.1714 18.104 2.5794 20.156 3.3954 21.788C4.2354 23.396 5.2794 24.692 6.5274 25.676C7.7754 26.66 9.0594 27.416 10.3794 27.944C11.7234 28.472 12.8994 28.88 13.9074 29.168L27.3714 33.128C29.3874 33.728 30.7314 34.484 31.4034 35.396C32.0754 36.284 32.4114 37.256 32.4114 38.312C32.4114 39.752 31.9194 40.964 30.9354 41.948C29.9754 42.932 28.7394 43.676 27.2274 44.18C25.7154 44.684 24.1554 44.936 22.5474 44.936C19.6674 44.936 17.0994 44.132 14.8434 42.524C12.5874 40.916 11.0994 38.624 10.3794 35.648L0.155396 37.16C0.683396 40.664 1.9314 43.688 3.8994 46.232C5.8914 48.752 8.4234 50.696 11.4954 52.064C14.5914 53.408 18.0594 54.08 21.8994 54.08Z" fill="#0055FF"/>
<path d="M29.5674 53.072C27.0954 53.744 24.5394 54.08 21.8994 54.08C18.0594 54.08 14.5914 53.408 11.4954 52.064C8.4234 50.696 5.8914 48.752 3.8994 46.232C1.9314 43.688 0.683396 40.664 0.155396 37.16L10.3794 35.648C11.0994 38.624 12.5874 40.916 14.8434 42.524C17.0994 44.132 19.6674 44.936 22.5474 44.936C24.1554 44.936 25.7154 44.684 27.2274 44.18C28.7394 43.676 29.9754 42.932 30.9354 41.948C31.9194 40.964 32.4114 39.752 32.4114 38.312C32.4114 37.256 32.0754 36.284 31.4034 35.396C30.7314 34.484 29.3874 33.728 27.3714 33.128L28.3794 23.12C29.7234 23.48 31.2114 23.96 32.8434 24.56C34.4754 25.136 36.0354 25.952 37.5234 27.008C39.0354 28.04 40.2714 29.408 41.2314 31.112C42.2154 32.816 42.7074 34.976 42.7074 37.592C42.7074 40.376 42.1194 42.812 40.9434 44.9C39.7914 46.964 38.2314 48.68 36.2634 50.048C34.2954 51.392 32.0634 52.4 29.5674 53.072Z" fill="#F96754"/>
<path d="M47.5718 53.0356H79.6838V43.8916H57.3638V1.19562H47.5718V53.0356Z" fill="#FFC61B"/>
<rect x="47.5718" y="43.5815" width="32.1121" height="9.45414" fill="#30B21A"/>
<path d="M86.7566 53.0356H95.9006V22.0756L110.949 53.0356H114.405L129.453 22.0756V53.0356H138.597V1.1956H129.813L112.677 35.6116L95.5406 1.1956H86.7566V53.0356Z" fill="#3C3C3C"/>
<path d="M159.502 54.1156C162.502 54.1156 165.022 53.6596 167.062 52.7476C169.126 51.8116 171.022 50.3236 172.75 48.2836V53.0356H181.318V29.2756C181.318 27.4996 181.246 25.8916 181.102 24.4516C180.958 23.0116 180.502 21.5716 179.734 20.1316C178.366 17.5396 176.35 15.7156 173.686 14.6596C171.022 13.6036 167.974 13.0756 164.542 13.0756C159.862 13.0756 156.166 14.0836 153.454 16.0996C150.742 18.1156 148.894 20.7316 147.91 23.9476L156.766 26.7556C157.39 24.9796 158.482 23.7436 160.042 23.0476C161.602 22.3516 163.102 22.0036 164.542 22.0036C166.846 22.0036 168.562 22.4356 169.69 23.2996C170.818 24.1396 171.478 25.4716 171.67 27.2956C168.022 27.8236 164.806 28.3396 162.022 28.8436C159.238 29.3236 156.91 29.8996 155.038 30.5716C151.918 31.7236 149.722 33.2956 148.45 35.2876C147.178 37.2556 146.542 39.5956 146.542 42.3076C146.542 44.4676 147.034 46.4476 148.018 48.2476C149.026 50.0236 150.49 51.4516 152.41 52.5316C154.354 53.5876 156.718 54.1156 159.502 54.1156ZM161.59 46.4116C159.91 46.4116 158.578 46.0396 157.594 45.2956C156.61 44.5276 156.118 43.4836 156.118 42.1636C156.118 41.1796 156.43 40.3396 157.054 39.6436C157.678 38.9236 158.71 38.2756 160.15 37.6996C161.254 37.2916 162.61 36.9196 164.218 36.5836C165.85 36.2236 168.31 35.7676 171.598 35.2156C171.574 36.1516 171.502 37.1836 171.382 38.3116C171.262 39.4156 170.998 40.3876 170.59 41.2276C170.326 41.7796 169.822 42.4636 169.078 43.2796C168.358 44.0956 167.374 44.8276 166.126 45.4756C164.902 46.0996 163.39 46.4116 161.59 46.4116Z" fill="#3C3C3C"/>
<path d="M191.398 8.7556H201.19V0.115601H191.398V8.7556ZM191.398 53.0356H201.19V14.1556H191.398V53.0356Z" fill="#3C3C3C"/>
<path d="M212.703 53.0356H222.495V0.115601H212.703V53.0356Z" fill="#3C3C3C"/>
</svg>
